<svg width="105" height="105" viewBox="0 0 105 105" fill="none" xmlns="http://www.w3.org/2000/svg">
<path d="M104.362 11.8382C104.336 11.6814 103.639 8.03139 100.468 4.8692C97.2971 1.70701 93.6471 1.0014 93.499 0.975264C92.9851 0.87944 92.4537 1.05367 92.1052 1.44567L82.8974 11.4462C82.5054 11.8644 82.3922 12.4741 82.5925 13.0055C82.6012 13.0142 82.9846 14.3209 81.4775 15.8367L63.0532 34.0694C63.0532 34.0694 63.0444 34.0781 63.0357 34.0781L63.027 34.0868L49.6378 47.3279C48.0872 46.4307 45.0644 43.9828 46.2665 38.8606C47.521 33.5293 45.6306 31.6912 44.4023 31.0727C41.9806 29.8618 38.4961 31.3689 35.5081 34.9231C33.2171 37.6497 32.1107 40.7335 31.0567 43.704C29.0792 49.2357 27.5199 53.6175 18.6779 53.844C11.3953 54.0356 4.53085 58.6177 1.98716 64.9857C0.096816 69.7159 -1.07921 79.6642 12.31 93.0447C21.3959 102.131 28.8876 104.509 34.245 104.5C36.78 104.5 38.8445 103.969 40.3603 103.359C46.7282 100.815 51.3104 93.9506 51.502 86.668C51.7285 77.8348 56.1016 76.2668 61.6419 74.2893C64.6212 73.2265 67.6963 72.1289 70.4229 69.8379C73.9771 66.8499 75.4841 63.3567 74.2733 60.9436C73.6548 59.7066 71.8167 57.825 66.4854 59.0794C61.3632 60.2903 58.924 57.2849 58.018 55.7082L89.518 23.8685C90.9989 22.3876 92.2446 22.7186 92.3492 22.7534C92.8893 22.9538 93.4903 22.8318 93.9085 22.4485L103.909 13.2407C104.284 12.8836 104.458 12.3522 104.362 11.8382ZM70.179 39.0696L66.2676 35.1583L73.9335 27.5708L77.7578 31.395L70.179 39.0696ZM59.2289 50.1417L55.2043 46.1171L64.1072 37.31L68.036 41.2388L59.2289 50.1417ZM44.6114 64.916L40.4213 60.7259L53.0352 48.2513L57.0859 52.3021L44.6114 64.916ZM67.1736 62.0413C70.1615 61.3356 71.3289 61.8758 71.5379 62.3113C71.9038 63.0518 71.1808 65.2122 68.4541 67.5032C66.1457 69.4458 63.3319 70.4476 60.6053 71.4233C54.7687 73.5053 48.7318 75.6657 48.4444 86.5896C48.3137 91.5812 45.378 98.0711 39.2191 100.528C32.2501 103.315 23.4517 99.883 14.453 90.8843C5.45424 81.8855 2.03071 73.0872 4.8096 66.1181C7.26618 59.968 13.7561 57.0236 18.7476 56.8929C29.6716 56.6141 31.832 50.5685 33.914 44.732C34.8896 42.0053 35.8914 39.1916 37.834 36.8831C40.1338 34.1478 42.2942 33.4247 43.026 33.7993C43.4528 34.0171 43.9929 35.1757 43.296 38.1637C41.9283 43.9828 44.7508 47.6938 47.4077 49.5319L37.1894 59.6457C36.9019 59.9331 36.7364 60.3164 36.7364 60.7259C36.7364 61.1353 36.8932 61.5186 37.1807 61.8061L43.5312 68.1566C43.8187 68.444 44.202 68.6009 44.6114 68.6009C45.0208 68.6009 45.4041 68.4353 45.6916 68.1479L55.8054 57.9295C57.6435 60.5865 61.3545 63.4089 67.1736 62.0413ZM79.9095 29.2346L76.1026 25.4278L82.5403 19.0599L86.2774 22.797L79.9095 29.2346ZM92.4014 19.6784C91.3735 19.5825 89.9623 19.7916 88.5423 20.7411L84.6048 16.8036C85.5544 15.375 85.7721 13.9725 85.6676 12.9445L93.7255 4.18972C94.7535 4.52946 96.6351 5.3309 98.3251 7.02088C100.015 8.71087 100.817 10.5925 101.156 11.6204L92.4014 19.6784Z" fill="white"/>
<path d="M37.5727 74.3677C37.8689 74.6639 38.2609 74.812 38.6529 74.812C39.0449 74.812 39.4369 74.6639 39.7331 74.3677C40.3255 73.7753 40.3255 72.8084 39.7331 72.216L33.13 65.6129C32.5376 65.0205 31.5706 65.0205 30.9783 65.6129C30.3859 66.2052 30.3859 67.1722 30.9783 67.7645L37.5727 74.3677Z" fill="white"/>
<path d="M43.7925 78.4358L39.1407 83.0876L34.3408 83.4796L21.361 70.4998C20.7686 69.9075 19.8017 69.9075 19.2093 70.4998L15.0279 74.6812C14.4355 75.2736 14.4355 76.2405 15.0279 76.8329L28.5042 90.3092C28.8004 90.6054 29.1924 90.7535 29.5844 90.7535C29.9764 90.7535 30.3684 90.6054 30.6646 90.3092L34.4453 86.5286L39.9421 86.0843C40.2993 86.0582 40.639 85.9013 40.9004 85.64L45.9529 80.5962C46.5453 80.0038 46.5453 79.0369 45.9529 78.4445C45.3518 77.8434 44.3936 77.8434 43.7925 78.4358ZM29.5844 87.0774L18.2598 75.7527L20.2808 73.7317L31.6054 85.0564L29.5844 87.0774Z" fill="white"/>
</svg>
