<svg width="21" height="22" viewBox="0 0 21 22" fill="none" xmlns="http://www.w3.org/2000/svg">
<path d="M12.5 9.67969H10.5V7.67969H12.5V9.67969ZM12.5 5.67969H10.5V0.679688H12.5V5.67969ZM6.5 17.6797C5.4 17.6797 4.51 18.5797 4.51 19.6797C4.51 20.7797 5.4 21.6797 6.5 21.6797C7.6 21.6797 8.5 20.7797 8.5 19.6797C8.5 18.5797 7.6 17.6797 6.5 17.6797ZM16.5 17.6797C15.4 17.6797 14.51 18.5797 14.51 19.6797C14.51 20.7797 15.4 21.6797 16.5 21.6797C17.6 21.6797 18.5 20.7797 18.5 19.6797C18.5 18.5797 17.6 17.6797 16.5 17.6797ZM7.6 12.6797H15.05C15.8 12.6797 16.46 12.2697 16.8 11.6497L20.5 4.63969L18.75 3.67969L15.05 10.6797H8.03L3.77 1.67969H0.5V3.67969H2.5L6.1 11.2697L4.75 13.7097C4.02 15.0497 4.98 16.6797 6.5 16.6797H18.5V14.6797H6.5L7.6 12.6797Z" fill="white"/>
</svg>
