<svg width="87" height="93" viewBox="0 0 87 93" fill="none" xmlns="http://www.w3.org/2000/svg">
<path d="M85.2079 45.5609C85.9107 45.5609 86.4758 44.958 86.4758 44.2083V39.1689C86.4758 36.7188 84.6065 34.7247 82.3097 34.7247H4.50939C2.21262 34.7247 0.343323 36.7188 0.343323 39.1689V44.2083C0.343323 44.958 0.908458 45.5609 1.61125 45.5609H2.92266V81.3542H1.61125C0.908458 81.3542 0.343323 81.9571 0.343323 82.7068V90.8378C0.343323 91.5876 0.908458 92.1904 1.61125 92.1904H85.2079C85.9107 92.1904 86.4758 91.5876 86.4758 90.8378V82.7068C86.4758 81.9571 85.9107 81.3542 85.2079 81.3542H83.8965V45.5609H85.2079ZM2.87919 39.1689C2.87919 38.2105 3.61097 37.4299 4.50939 37.4299H82.3097C83.2082 37.4299 83.9399 38.2105 83.9399 39.1689V42.8557H2.87919V39.1689ZM52.5242 81.3542V45.5609H65.6744V81.3542H52.5242ZM36.8308 81.3542V45.5609H49.9811V81.3542H36.8308ZM21.1447 81.3542V45.5609H34.2949V81.3542H21.1447ZM5.45852 45.5609H18.6088V81.3542H5.45852V45.5609ZM83.9399 89.4852H2.87919V84.0594H83.9471V89.4852H83.9399ZM81.3606 81.3542H68.2103V45.5609H81.3606V81.3542Z" fill="white"/>
<path d="M9.96511 2.92734L39.6565 14.3045L19.8622 21.8868C19.4565 21.3148 18.9421 20.8356 18.3117 20.5265C17.2902 20.0086 16.1381 19.9545 15.0731 20.3641L11.9214 21.5699C10.8563 21.9795 10.0086 22.8065 9.52316 23.8963C9.03772 24.9861 8.98701 26.2151 9.37101 27.3512C9.75501 28.4874 10.5302 29.3994 11.5518 29.9095C12.1242 30.1955 12.7401 30.3424 13.3559 30.3424C13.8414 30.3424 14.3196 30.2496 14.7905 30.0719L17.9422 28.8661C19.0073 28.4565 19.855 27.6295 20.3404 26.5397C20.6375 25.875 20.7534 25.1562 20.7244 24.4374L43.4095 15.7499L66.0947 24.4374C66.0657 25.1562 66.1816 25.875 66.4787 26.5397C66.9641 27.6295 67.8118 28.4565 68.8769 28.8661L72.0286 30.0719C72.4995 30.2496 72.9777 30.3424 73.4632 30.3424C74.079 30.3424 74.6949 30.1955 75.2672 29.9095C76.2888 29.3917 77.0641 28.4874 77.4481 27.3512C77.8321 26.2151 77.7741 24.9861 77.2959 23.8963C76.8105 22.8065 75.9628 21.9795 74.8977 21.5699L71.746 20.3641C70.681 19.9545 69.5362 20.0163 68.5073 20.5265C67.8842 20.8433 67.3626 21.3148 66.9569 21.8868L47.1626 14.3045L76.854 2.92734C77.5133 2.67228 77.8538 1.89938 77.622 1.19604C77.3901 0.492692 76.6584 0.129427 75.999 0.376757L43.4168 12.8592L10.8346 0.376757C10.1752 0.121698 9.45071 0.492692 9.21161 1.19604C8.96527 1.89938 9.30579 2.67228 9.96511 2.92734ZM18.0437 25.3803C17.848 25.8209 17.5075 26.1455 17.08 26.3155L13.9283 27.5213C13.5008 27.6836 13.0444 27.6604 12.6314 27.4517C12.2184 27.243 11.9141 26.8798 11.7547 26.4237C11.6026 25.9677 11.6243 25.4731 11.8199 25.0402C12.0155 24.6074 12.3561 24.2751 12.7836 24.105L15.9353 22.8993C16.1237 22.8297 16.3193 22.7911 16.5076 22.7911C16.754 22.7911 17.0003 22.8529 17.2322 22.9688C17.6452 23.1775 17.9495 23.5408 18.1089 23.9968C18.261 24.4528 18.2393 24.9398 18.0437 25.3803ZM69.5797 22.9688C69.8115 22.8529 70.0579 22.7911 70.3042 22.7911C70.4998 22.7911 70.6954 22.8297 70.8766 22.8993L74.0283 24.105C74.4557 24.2673 74.7963 24.5997 74.9919 25.0402C75.1875 25.4808 75.2093 25.9677 75.0499 26.4237C74.8977 26.8798 74.5862 27.243 74.1732 27.4517C73.7602 27.6604 73.3038 27.6836 72.8763 27.5213L69.7246 26.3155C69.2971 26.1532 68.9566 25.8209 68.761 25.3803C68.5653 24.9398 68.5436 24.4528 68.6957 23.9968C68.8624 23.5331 69.1739 23.1698 69.5797 22.9688Z" fill="white"/>
</svg>
