<svg width="107" height="106" viewBox="0 0 107 106" fill="none" xmlns="http://www.w3.org/2000/svg">
<path d="M106.167 11.1459C106.14 10.9854 105.427 7.25829 102.181 4.01267C98.9359 0.767053 95.1998 0.0537301 95.0483 0.0269805C94.5043 -0.0711014 93.9515 0.125062 93.5949 0.535223L84.5535 10.8784C84.4465 11.0032 84.3573 11.1459 84.2949 11.2975L82.5294 15.4526L56.5467 41.159C54.4602 39.2508 49.8147 35.6218 44.5539 35.5059C41.3261 35.4256 38.4461 36.665 35.9495 39.1616C33.3726 41.7385 32.1243 44.3778 31.0186 46.705C28.9589 51.0474 27.6036 53.9096 18.4642 54.1503C11.0099 54.3465 3.98371 59.0366 1.38008 65.5546C-0.554806 70.3963 -1.75853 80.5789 11.9462 94.2747C21.2461 103.575 28.9143 106.009 34.398 106C36.9927 106 39.1059 105.456 40.6574 104.832C47.1754 102.228 51.8655 95.2021 52.0617 87.7478C52.3024 78.6084 55.1646 77.2442 59.507 75.1934C61.8342 74.0877 64.4645 72.8394 67.0503 70.2625C69.547 67.7659 70.7775 64.868 70.7061 61.6581C70.5902 56.3973 66.9612 51.7518 65.053 49.6653L90.7594 23.6825L94.9145 21.9171C95.0661 21.8547 95.2088 21.7655 95.3336 21.6585L105.677 12.6171C106.078 12.2426 106.265 11.6898 106.167 11.1459ZM71.1787 39.019L67.1752 35.0155L75.0217 27.2492L78.9361 31.1635L71.1787 39.019ZM49.8503 64.9928C48.7358 66.1074 47.2645 66.7137 45.6952 66.7137C44.1259 66.7137 42.6458 66.0985 41.5402 64.9928C39.2486 62.7013 39.2486 58.9742 41.5402 56.6826C42.6547 55.5681 44.1259 54.9617 45.6952 54.9617C47.2645 54.9617 48.7447 55.577 49.8503 56.6826C50.7331 57.5654 51.2681 58.6621 51.4732 59.8034C51.4821 59.848 51.4821 59.8926 51.491 59.9372C51.7674 61.7294 51.2235 63.6197 49.8503 64.9928ZM52.0527 54.4713C51.2681 53.6867 50.3586 53.0714 49.3689 52.6256L53.6221 48.417L57.7682 52.5632L53.6755 56.7005C53.2654 55.898 52.7304 55.149 52.0527 54.4713ZM59.9706 50.3519L55.8512 46.2325L64.9639 37.2178L68.9852 41.2392L59.9706 50.3519ZM67.5764 61.7294C67.621 64.0834 66.7294 66.152 64.8301 68.0423C62.6367 70.2358 60.3629 71.3147 58.1606 72.3579C53.5596 74.5335 49.2173 76.5933 48.9319 87.6587C48.7982 92.7678 45.7933 99.4107 39.4893 101.925C32.3561 104.778 23.3504 101.265 14.1396 92.0545C4.92886 82.8437 1.42466 73.838 4.26903 66.7048C6.78349 60.4097 13.4263 57.396 18.5355 57.2622C29.592 56.9769 31.6517 52.6345 33.8363 48.0336C34.8795 45.8312 35.9584 43.5575 38.1519 41.364C40.0511 39.4648 42.1019 38.5642 44.4648 38.6177C48.5931 38.698 52.4896 41.7118 54.3086 43.3524L45.7309 51.841C45.7131 51.841 45.7042 51.841 45.6863 51.841C43.2789 51.841 41.023 52.7772 39.3199 54.4803C35.8068 57.9934 35.8068 63.7 39.3199 67.2041C41.023 68.9072 43.2789 69.8434 45.6863 69.8434C48.0938 69.8434 50.3497 68.9072 52.0527 67.2041C53.9787 65.2782 54.8436 62.6924 54.6564 60.169L62.8417 51.8945C64.4824 53.7045 67.4962 57.601 67.5764 61.7294ZM81.1385 28.9522L77.2419 25.0557L83.8313 18.5377L87.6564 22.3629L81.1385 28.9522ZM93.4522 19.1351L90.2155 20.5083L85.6859 15.9787L87.0591 12.742L95.289 3.3261C96.3412 3.68276 98.2493 4.50308 99.9702 6.22397C101.691 7.94486 102.511 9.853 102.868 10.9052L93.4522 19.1351Z" fill="white"/>
<path d="M25.1783 67.9175C24.572 67.3112 23.5823 67.3112 22.9759 67.9175L18.7406 72.1529C18.4463 72.4471 18.2858 72.8394 18.2858 73.2585C18.2858 73.6687 18.4463 74.0699 18.7406 74.3642L31.839 87.4626C32.1332 87.7568 32.5255 87.9173 32.9446 87.9173C33.3548 87.9173 33.756 87.7568 34.0503 87.4626L38.2856 83.2272C38.8919 82.6209 38.8919 81.6311 38.2856 81.0248L25.1783 67.9175ZM32.9357 84.1545L22.0486 73.2674L24.0816 71.2345L34.9687 82.1216L32.9357 84.1545Z" fill="white"/>
<path d="M96.0558 7.93594L89.5378 14.4539C88.9315 15.0603 88.9315 16.05 89.5378 16.6563C89.841 16.9595 90.2422 17.1111 90.6435 17.1111C91.0447 17.1111 91.446 16.9595 91.7492 16.6563L98.2671 10.1383C98.8735 9.532 98.8735 8.54227 98.2671 7.93594C97.6519 7.32962 96.6622 7.32962 96.0558 7.93594Z" fill="white"/>
</svg>
