<svg width="31" height="31" viewBox="0 0 31 31" fill="none" xmlns="http://www.w3.org/2000/svg">
<path d="M30.0875 8.9812V0.981201H22.0875V3.64787H8.75421V0.981201H0.754211V8.9812H3.42088V22.3145H0.754211V30.3145H8.75421V27.6479H22.0875V30.3145H30.0875V22.3145H27.4209V8.9812H30.0875ZM3.42088 3.64787H6.08754V6.31453H3.42088V3.64787ZM6.08754 27.6479H3.42088V24.9812H6.08754V27.6479ZM22.0875 24.9812H8.75421V22.3145H6.08754V8.9812H8.75421V6.31453H22.0875V8.9812H24.7542V22.3145H22.0875V24.9812ZM27.4209 27.6479H24.7542V24.9812H27.4209V27.6479ZM24.7542 6.31453V3.64787H27.4209V6.31453H24.7542ZM17.7275 18.3145H13.0742L12.1009 20.9812H9.94088L14.4742 8.9812H16.3409L20.8875 20.9812H18.7142L17.7275 18.3145ZM13.6742 16.6345H17.1542L15.4209 11.5279L13.6742 16.6345Z" fill="white"/>
</svg>
