<svg width="33" height="23" viewBox="0 0 33 23" fill="none" xmlns="http://www.w3.org/2000/svg">
<path d="M27.3341 19.6479C28.8008 19.6479 29.9875 18.4479 29.9875 16.9812L30.0008 3.64787C30.0008 2.16787 28.8008 0.981201 27.3341 0.981201H6.00081C4.52081 0.981201 3.33415 2.16787 3.33415 3.64787V16.9812C3.33415 18.4479 4.52081 19.6479 6.00081 19.6479H0.66748V22.3145H32.6675V19.6479H27.3341ZM6.00081 16.9812V3.64787H27.3341V16.9945L6.00081 16.9812ZM18.0008 7.8212C12.8141 8.5412 10.7475 12.0879 10.0008 15.6479C11.8541 13.1545 14.2941 12.0212 18.0008 12.0212V14.9412L23.3341 9.95453L18.0008 4.9812V7.8212Z" fill="white"/>
</svg>
