<svg width="120" height="76" viewBox="0 0 120 76" fill="none" xmlns="http://www.w3.org/2000/svg">
<path d="M117.563 12.3287H107.739L96.2632 1.43365C95.9327 1.12322 95.5021 0.953003 95.0615 0.953003H24.534C24.0834 0.953003 23.6528 1.12322 23.3323 1.43365L11.8565 12.3287H2.03294C1.0616 12.3287 0.280518 13.1098 0.280518 14.0811V68.6967C0.280518 72.4218 3.31471 75.456 7.03986 75.456H112.556C116.281 75.456 119.315 72.4218 119.315 68.6967V14.0811C119.315 13.1198 118.534 12.3287 117.563 12.3287ZM25.225 4.46787H94.3605L105.296 14.8422V38.8053H14.2999V14.8322L25.225 4.46787ZM34.4177 56.7902V71.9512H26.1062V56.7902H34.4177ZM46.224 56.7902V71.9512H37.9125V56.7902H46.224ZM58.0404 56.7902V71.9512H49.7288V56.7902H58.0404ZM69.8567 56.7902V71.9512H61.5452V56.7902H69.8567ZM81.663 56.7902V71.9512H73.3515V56.7902H81.663ZM93.4793 56.7902V71.9512H85.1678V56.7902H93.4793ZM105.296 56.7902V71.9512H96.9841V56.7902H105.296ZM22.6014 71.9512H14.2899V56.7902H22.6014V71.9512ZM115.81 68.6967C115.81 70.4892 114.348 71.9512 112.556 71.9512H108.791V55.0378C108.791 54.0664 108.009 53.2854 107.038 53.2854H12.5375C11.5661 53.2854 10.785 54.0664 10.785 55.0378V71.9512H7.01981C5.22734 71.9512 3.76532 70.4892 3.76532 68.6967V15.8336H10.785V40.5478C10.785 41.5191 11.5661 42.3002 12.5375 42.3002H107.038C108.009 42.3002 108.791 41.5191 108.791 40.5478V15.8336H115.81V68.6967Z" fill="white"/>
<path d="M24.5239 27.1192C27.5481 27.1192 30.0115 24.6559 30.0115 21.6317C30.0115 18.6075 27.5481 16.144 24.5239 16.144C21.4998 16.144 19.0364 18.6075 19.0364 21.6317C19.0364 24.6559 21.4998 27.1192 24.5239 27.1192ZM24.5239 19.6489C25.6155 19.6489 26.5067 20.5402 26.5067 21.6317C26.5067 22.7232 25.6155 23.6144 24.5239 23.6144C23.4324 23.6144 22.5412 22.7232 22.5412 21.6317C22.5412 20.5402 23.4324 19.6489 24.5239 19.6489Z" fill="white"/>
<path d="M95.0615 27.1192C98.0857 27.1192 100.549 24.6559 100.549 21.6317C100.549 18.6075 98.0857 16.144 95.0615 16.144C92.0374 16.144 89.574 18.6075 89.574 21.6317C89.574 24.6559 92.0273 27.1192 95.0615 27.1192ZM95.0615 19.6489C96.153 19.6489 97.0443 20.5402 97.0443 21.6317C97.0443 22.7232 96.153 23.6144 95.0615 23.6144C93.97 23.6144 93.0788 22.7232 93.0788 21.6317C93.0788 20.5402 93.96 19.6489 95.0615 19.6489Z" fill="white"/>
</svg>
