<svg width="77" height="76" viewBox="0 0 77 76" fill="none" xmlns="http://www.w3.org/2000/svg">
<path d="M55.4241 0.315918H21.5994C10.1035 0.315918 0.78418 9.6352 0.78418 21.1311V54.9558C0.78418 66.4517 10.1035 75.771 21.5994 75.771H55.4241C66.92 75.771 76.2393 66.4517 76.2393 54.9558V21.1311C76.2393 9.6352 66.92 0.315918 55.4241 0.315918Z" fill="#3A36DB"/>
<path d="M50.0116 44.0602H54.0744C54.313 44.0418 54.5492 44.118 54.7321 44.2724C54.9149 44.4267 55.0296 44.6468 55.0514 44.8851V45.2285C55.0296 45.4668 54.9149 45.6869 54.7321 45.8412C54.5492 45.9955 54.313 46.0717 54.0744 46.0533H50.0116C49.773 46.0717 49.5368 45.9955 49.354 45.8412C49.1712 45.6869 49.0564 45.4668 49.0345 45.2285V44.8851C49.0564 44.6468 49.1712 44.4267 49.354 44.2724C49.5368 44.118 49.773 44.0418 50.0116 44.0602ZM41.8832 44.0602H45.9461C46.1847 44.0418 46.4208 44.118 46.6037 44.2724C46.7865 44.4267 46.9013 44.6468 46.9231 44.8851V45.2285C46.9013 45.4668 46.7865 45.6869 46.6037 45.8412C46.4208 45.9955 46.1847 46.0717 45.9461 46.0533H41.8832C41.6447 46.0717 41.4085 45.9955 41.2257 45.8412C41.0428 45.6869 40.9281 45.4668 40.9062 45.2285V44.8851C40.9281 44.6468 41.0428 44.4267 41.2257 44.2724C41.4085 44.118 41.6447 44.0418 41.8832 44.0602ZM33.7549 44.0602H37.8177C38.0559 44.0425 38.2914 44.1191 38.4737 44.2733C38.6559 44.4276 38.7703 44.6473 38.7922 44.8851V45.2285C38.7703 45.4663 38.6559 45.686 38.4737 45.8402C38.2914 45.9945 38.0559 46.071 37.8177 46.0533H33.7549C33.5163 46.0717 33.2801 45.9955 33.0973 45.8412C32.9144 45.6869 32.7998 45.4668 32.7779 45.2285V44.8851C32.7998 44.6468 32.9144 44.4267 33.0973 44.2724C33.2801 44.118 33.5163 44.0418 33.7549 44.0602ZM25.6266 44.0602H29.6894C29.928 44.0418 30.1642 44.118 30.347 44.2724C30.5299 44.4267 30.6446 44.6468 30.6664 44.8851V45.2285C30.6446 45.4668 30.5299 45.6869 30.347 45.8412C30.1642 45.9955 29.928 46.0717 29.6894 46.0533H25.6317C25.3932 46.0717 25.157 45.9955 24.9742 45.8412C24.7914 45.6869 24.6766 45.4668 24.6548 45.2285V44.8851C24.6766 44.6468 24.7914 44.4267 24.9742 44.2724C25.157 44.118 25.3932 44.0418 25.6317 44.0602H25.6266ZM26.7064 31.3187H32.0494C32.3333 31.3468 32.5949 31.4852 32.7779 31.7042C32.9609 31.9232 33.0505 32.2052 33.0276 32.4896V34.8014C33.0505 35.0858 32.9609 35.3679 32.7779 35.5868C32.5949 35.8058 32.3333 35.9442 32.0494 35.9723H26.7064C26.4223 35.9445 26.1605 35.8062 25.9775 35.5871C25.7944 35.3681 25.7048 35.0859 25.728 34.8014V32.4896C25.7048 32.2051 25.7944 31.9229 25.9775 31.7038C26.1605 31.4848 26.4223 31.3465 26.7064 31.3187ZM25.0607 27.8335C24.2034 27.9318 23.419 28.3627 22.8762 29.0335C22.3334 29.7043 22.0756 30.5613 22.1582 31.4202V47.2541C22.0756 48.1129 22.3334 48.9698 22.8763 49.6403C23.4191 50.3109 24.2035 50.7415 25.0607 50.8395H54.643C55.5 50.7412 56.2842 50.3105 56.827 49.64C57.3697 48.9695 57.6276 48.1128 57.5453 47.2541V31.4202C57.628 30.5613 57.3703 29.7043 56.8274 29.0335C56.2846 28.3627 55.5002 27.9318 54.643 27.8335H25.0607Z" fill="white"/>
</svg>
