<svg width="76" height="76" viewBox="0 0 76 76" fill="none" xmlns="http://www.w3.org/2000/svg">
<path d="M54.9543 0.315918H21.1296C9.63373 0.315918 0.314453 9.6352 0.314453 21.1311V54.9558C0.314453 66.4517 9.63373 75.771 21.1296 75.771H54.9543C66.4502 75.771 75.7695 66.4517 75.7695 54.9558V21.1311C75.7695 9.6352 66.4502 0.315918 54.9543 0.315918Z" fill="#3AC59B"/>
<path d="M49.5419 44.0602H53.6047C53.8433 44.0418 54.0795 44.118 54.2623 44.2724C54.4452 44.4267 54.5599 44.6468 54.5817 44.8851V45.2285C54.5599 45.4668 54.4452 45.6869 54.2623 45.8412C54.0795 45.9955 53.8433 46.0717 53.6047 46.0533H49.5419C49.3033 46.0717 49.0671 45.9955 48.8843 45.8412C48.7014 45.6869 48.5867 45.4668 48.5648 45.2285V44.8851C48.5867 44.6468 48.7014 44.4267 48.8843 44.2724C49.0671 44.118 49.3033 44.0418 49.5419 44.0602ZM41.4135 44.0602H45.4764C45.715 44.0418 45.9511 44.118 46.1339 44.2724C46.3168 44.4267 46.4315 44.6468 46.4534 44.8851V45.2285C46.4315 45.4668 46.3168 45.6869 46.1339 45.8412C45.9511 45.9955 45.715 46.0717 45.4764 46.0533H41.4135C41.1749 46.0717 40.9388 45.9955 40.7559 45.8412C40.5731 45.6869 40.4583 45.4668 40.4365 45.2285V44.8851C40.4583 44.6468 40.5731 44.4267 40.7559 44.2724C40.9388 44.118 41.1749 44.0418 41.4135 44.0602ZM33.2852 44.0602H37.348C37.5861 44.0425 37.8217 44.1191 38.004 44.2733C38.1862 44.4276 38.3006 44.6473 38.3225 44.8851V45.2285C38.3006 45.4663 38.1862 45.686 38.004 45.8402C37.8217 45.9945 37.5861 46.071 37.348 46.0533H33.2852C33.0466 46.0717 32.8104 45.9955 32.6275 45.8412C32.4447 45.6869 32.33 45.4668 32.3082 45.2285V44.8851C32.33 44.6468 32.4447 44.4267 32.6275 44.2724C32.8104 44.118 33.0466 44.0418 33.2852 44.0602ZM25.1568 44.0602H29.2197C29.4582 44.0418 29.6945 44.118 29.8773 44.2724C30.0601 44.4267 30.1748 44.6468 30.1967 44.8851V45.2285C30.1748 45.4668 30.0601 45.6869 29.8773 45.8412C29.6945 45.9955 29.4582 46.0717 29.2197 46.0533H25.162C24.9235 46.0717 24.6873 45.9955 24.5045 45.8412C24.3216 45.6869 24.2069 45.4668 24.185 45.2285V44.8851C24.2069 44.6468 24.3216 44.4267 24.5045 44.2724C24.6873 44.118 24.9235 44.0418 25.162 44.0602H25.1568ZM26.2367 31.3187H31.5796C31.8636 31.3468 32.1252 31.4852 32.3082 31.7042C32.4911 31.9232 32.5808 32.2052 32.5579 32.4896V34.8014C32.5808 35.0858 32.4911 35.3679 32.3082 35.5868C32.1252 35.8058 31.8636 35.9442 31.5796 35.9723H26.2367C25.9526 35.9445 25.6908 35.8062 25.5077 35.5871C25.3247 35.3681 25.2351 35.0859 25.2583 34.8014V32.4896C25.2351 32.2051 25.3247 31.9229 25.5077 31.7038C25.6908 31.4848 25.9526 31.3465 26.2367 31.3187ZM24.5909 27.8335C23.7337 27.9318 22.9493 28.3627 22.4065 29.0335C21.8637 29.7043 21.6058 30.5613 21.6885 31.4202V47.2541C21.6058 48.1129 21.8637 48.9698 22.4065 49.6403C22.9494 50.3109 23.7338 50.7415 24.5909 50.8395H54.1732C55.0303 50.7412 55.8145 50.3105 56.3572 49.64C56.9 48.9695 57.1579 48.1128 57.0756 47.2541V31.4202C57.1583 30.5613 56.9005 29.7043 56.3577 29.0335C55.8149 28.3627 55.0305 27.9318 54.1732 27.8335H24.5909Z" fill="white"/>
</svg>
