<svg width="23" height="23" viewBox="0 0 23 23" fill="none" xmlns="http://www.w3.org/2000/svg">
<path d="M11.042 3.64787C12.5545 3.64787 13.792 4.84787 13.792 6.31453C13.792 7.7812 12.5545 8.9812 11.042 8.9812C9.52949 8.9812 8.29199 7.7812 8.29199 6.31453C8.29199 4.84787 9.52949 3.64787 11.042 3.64787ZM11.042 15.6479C14.7545 15.6479 19.017 17.3679 19.292 18.3145V19.6479H2.79199V18.3279C3.06699 17.3679 7.32949 15.6479 11.042 15.6479ZM11.042 0.981201C8.00324 0.981201 5.54199 3.36787 5.54199 6.31453C5.54199 9.2612 8.00324 11.6479 11.042 11.6479C14.0807 11.6479 16.542 9.2612 16.542 6.31453C16.542 3.36787 14.0807 0.981201 11.042 0.981201ZM11.042 12.9812C7.37074 12.9812 0.0419922 14.7679 0.0419922 18.3145V22.3145H22.042V18.3145C22.042 14.7679 14.7132 12.9812 11.042 12.9812Z" fill="white"/>
</svg>
